<svg width="50" height="57" viewBox="0 0 50 57" fill="none" xmlns="http://www.w3.org/2000/svg">
<path d="M14.7965 35.2422C10.9547 16.6528 14.5939 4.45654 14.5939 4.45654C14.5939 4.45654 13.6205 11.8816 21.2769 23.8507C21.1805 38.6888 24.165 46.4281 24.165 46.4281L24.7777 45.9858L24.165 46.5079C24.165 46.5079 19.624 42.8824 14.7965 35.2422Z" fill="#0A5959"/>
<path d="M32.8936 32.6103C34.7293 34.4206 36.4439 35.6727 37.6817 36.2697C37.6743 36.2673 37.6669 36.2624 37.6594 36.2576C37.6594 36.2576 39.0504 36.7458 39.295 36.4195C40.9898 34.6648 41.4049 31.3921 40.2758 25.2408C33.8127 21.6298 32.9974 16.0029 32.9974 16.0029C32.9974 16.0029 31.8338 23.8172 32.8936 32.6079V32.6103Z" fill="#0A5959"/>
<path d="M14.5937 4.45683C14.5937 4.45683 9.27697 22.2703 18.2749 47.6466C18.5195 48.379 18.2749 49.1911 17.6202 49.6793L8.13061 56.1859C7.23131 56.8361 5.92189 56.4301 5.51424 55.3714C2.97692 48.6231 -3.97537 26.2535 3.05845 1.77152C3.38704 0.795038 4.4494 0.227038 5.4327 0.633097L14.5937 4.45683Z" fill="url(#paint0_linear_0_144)"/>
<path d="M32.7528 40.2454L24.165 46.4281C24.165 46.4281 19.5845 34.5533 21.9563 12.0218C22.1193 10.7214 23.5103 10.0688 24.6567 10.7214L32.9999 16.0075C32.9999 16.0075 31.3644 26.988 33.7361 37.5625C33.9807 38.6187 33.5731 39.6774 32.7553 40.2478L32.7528 40.2454Z" fill="url(#paint1_linear_0_144)"/>
<path d="M48.6215 26.4975L40.6859 21.3735C40.1943 21.0472 39.4581 21.5354 39.6236 22.1058C41.5062 30.3213 41.2591 34.3867 39.2975 36.4218C39.0529 36.7481 37.6619 36.2599 37.6619 36.2599C38.9713 36.9101 39.2975 36.5862 39.2975 36.5862C40.6069 35.6097 45.5135 32.1123 48.6215 29.9974C49.8494 29.1031 49.8494 27.3121 48.6215 26.5V26.4975Z" fill="#4BDFFF"/>
<defs>
<linearGradient id="paint0_linear_0_144" x1="9.18368" y1="0.500488" x2="9.18368" y2="56.4991" gradientUnits="userSpaceOnUse">
<stop stop-color="#0BD895"/>
<stop offset="1" stop-color="#4BDFFF"/>
</linearGradient>
<linearGradient id="paint1_linear_0_144" x1="27.5407" y1="10.4653" x2="27.5407" y2="46.4281" gradientUnits="userSpaceOnUse">
<stop stop-color="#0BD895"/>
<stop offset="1" stop-color="#4BDFFF"/>
</linearGradient>
</defs>
</svg>
