<svg width="103" height="42" viewBox="0 0 103 42" fill="none" xmlns="http://www.w3.org/2000/svg">
<path d="M10.1496 16.9991L16.4225 0.45459H12.9414L8.52893 12.7524L4.11643 0.45459H0.514282L6.76245 16.9991H10.1496ZM21.6454 17.3012C22.8856 17.3012 24.2445 16.8348 24.8893 15.7616C24.8893 16.2281 24.9362 16.7647 24.9856 16.9991H28.0146C27.9677 16.6027 27.896 15.8099 27.896 14.9229V5.52067H24.7238V12.1941C24.7238 13.5234 23.9134 14.4564 22.5052 14.4564C21.0253 14.4564 20.3582 13.4292 20.3582 12.1457V5.51825H17.1859V12.7742C17.1859 15.2709 18.8067 17.3012 21.6454 17.3012ZM36.4097 17.3472C39.2954 17.3472 41.1558 15.6915 41.7512 13.7071L39.1027 12.9361C38.7222 13.9633 37.9094 14.686 36.432 14.686C34.8582 14.686 33.5463 13.5887 33.4746 12.0732H41.8698C41.8698 12.0273 41.9167 11.5608 41.9167 11.1161C41.9167 7.43012 39.7475 5.16537 36.1207 5.16537C33.1164 5.16537 30.3493 7.54614 30.3493 11.2079C30.3493 15.0824 33.1881 17.3447 36.4073 17.3447L36.4097 17.3472ZM38.7939 9.95107H33.5463C33.6179 8.90208 34.5247 7.68874 36.1701 7.68874C37.9835 7.68874 38.7469 8.80782 38.7939 9.95107ZM7.71611 41.8485C11.6518 41.8485 13.821 39.2816 13.821 36.7389C13.821 34.4065 12.1755 32.4463 9.09964 31.8614L6.73774 31.4191C5.4975 31.1846 4.90208 30.4619 4.90208 29.5531C4.90208 28.4558 5.95209 27.4527 7.55057 27.4527C9.69753 27.4527 10.461 28.8764 10.6265 29.7852L13.5838 28.8981C13.2033 27.0322 11.6271 24.6055 7.52587 24.6055C4.3289 24.6055 1.63594 26.8461 1.63594 29.7852C1.63594 32.2819 3.37772 33.9859 6.07315 34.5225L8.43505 34.989C9.74694 35.2452 10.4857 35.9921 10.4857 36.9492C10.4857 38.1166 9.50729 38.9795 7.74328 38.9795C5.35914 38.9795 4.19055 37.51 4.04725 35.8761L0.993581 36.6688C1.25546 39.0254 3.23442 41.8485 7.71857 41.8485H7.71611ZM21.5737 41.8485C24.6991 41.8485 26.5347 39.8883 27.0585 37.974L24.2692 37.0652C24.0073 37.9523 23.1969 39.0013 21.5737 39.0013C19.9506 39.0013 18.5695 37.8338 18.5695 35.7576C18.5695 33.6814 19.9283 32.5382 21.5515 32.5382C23.1747 32.5382 23.864 33.517 24.1506 34.4742L26.9893 33.5412C26.4878 31.6052 24.6768 29.6667 21.4799 29.6667C18.0704 29.6667 15.3972 32.2094 15.3972 35.7576C15.3972 39.3058 18.1174 41.8485 21.5737 41.8485ZM32.5679 41.4981V34.7546C32.6396 33.4953 33.4277 32.514 34.7618 32.514C36.2887 32.514 36.931 33.517 36.931 34.8005V41.4981H40.1033V34.2639C40.1033 31.7429 38.7197 29.7151 35.7377 29.7151C34.6161 29.7151 33.3289 30.0873 32.5655 30.9743V24.6055H29.3932V41.4981H32.5655H32.5679ZM48.5948 41.8485C52.1006 41.8485 54.7491 39.2816 54.7491 35.7576C54.7491 32.2336 52.1006 29.6667 48.5948 29.6667C45.089 29.6667 42.4405 32.2094 42.4405 35.7576C42.4405 39.3058 45.089 41.8485 48.5948 41.8485ZM48.5948 39.0254C47.0457 39.0254 45.6127 37.9064 45.6127 35.7576C45.6127 33.6089 47.0432 32.4898 48.5948 32.4898C50.1463 32.4898 51.5768 33.5871 51.5768 35.7576C51.5768 37.9281 50.1463 39.0254 48.5948 39.0254ZM62.524 41.8485C66.0298 41.8485 68.6783 39.2816 68.6783 35.7576C68.6783 32.2336 66.0298 29.6667 62.524 29.6667C59.0183 29.6667 56.3698 32.2094 56.3698 35.7576C56.3698 39.3058 59.0183 41.8485 62.524 41.8485ZM62.524 39.0254C60.975 39.0254 59.542 37.9064 59.542 35.7576C59.542 33.6089 60.9725 32.4898 62.524 32.4898C64.0756 32.4898 65.5061 33.5871 65.5061 35.7576C65.5061 37.9281 64.0756 39.0254 62.524 39.0254ZM74.3533 41.4981V24.6055H71.1811V41.4981H74.3533ZM79.6009 41.6624C80.8164 41.6624 81.7948 40.7053 81.7948 39.5403C81.7948 38.3753 80.8164 37.4181 79.6009 37.4181C78.3853 37.4181 77.4317 38.3753 77.4317 39.5403C77.4317 40.7053 78.41 41.6624 79.6009 41.6624ZM86.5902 28.1513C87.6872 28.1513 88.547 27.2884 88.547 26.2611C88.547 25.2339 87.6872 24.3251 86.5902 24.3251C85.4933 24.3251 84.6335 25.188 84.6335 26.2611C84.6335 27.3343 85.5155 28.1513 86.5902 28.1513ZM88.1887 41.4981V30.0172H85.0164V41.4981H88.1887ZM96.8457 41.8485C100.352 41.8485 103 39.2816 103 35.7576C103 32.2336 100.352 29.6667 96.8457 29.6667C93.3399 29.6667 90.6914 32.2094 90.6914 35.7576C90.6914 39.3058 93.3399 41.8485 96.8457 41.8485ZM96.8457 39.0254C95.2966 39.0254 93.8637 37.9064 93.8637 35.7576C93.8637 33.6089 95.2942 32.4898 96.8457 32.4898C98.3973 32.4898 99.8277 33.5871 99.8277 35.7576C99.8277 37.9281 98.3973 39.0254 96.8457 39.0254Z" fill="white"/>
</svg>
